# xmcd
#
# Track frame offsets:
#	150
#	9523
#	28998
#	47056
#	61961
#	71437
#	84231
#	109395
#	124395
#	150945
#	179795
#
# Disc length: 2566 seconds
#
# Revision: 1
# Processed by: cddbd v1.4PL0 Copyright (c) Steve Scherf et al.
# Submitted via: audiograbber 1.80
#
DISCID=920a040b
DTITLE=Al Green - Al Green
DYEAR=1900
DGENRE=
TTITLE0=Al Green - Ain't No Sunshine When She's Gone
TTITLE1=Al Green - Lean On Me
TTITLE2=Al Green - Let's Get It On
TTITLE3=Al Green - Let's Stay Together
TTITLE4=Al Green - Love And Happiness
TTITLE5=Al Green - Tired of Being Alone
TTITLE6=Al Green - Unchained Melody
TTITLE7=Al Green - You Ought To Be With Me
TTITLE8=Al Green - Turn Off The Lights
TTITLE9=Al Green - How Can You Mend A Broken Heart
TTITLE10=Al Green - Put A Little Love In Your Heart
EXTD=
EXTT0=
EXTT1=
EXTT2=
EXTT3=
EXTT4=
EXTT5=
EXTT6=
EXTT7=
EXTT8=
EXTT9=
EXTT10=
PLAYORDER=
